# xmcd CD database file
#
# Track frame offsets:
#	150
#	15651
#	32458
#	53750
#	74101
#	95917
#	117604
#	137261
#	158923
#	180927
#	195944
#	216148
#
# Disc length: 3131 seconds
#
# Revision: 17
# Processed by: cddbd v1.5.2PL0 Copyright (c) Steve Scherf et al.
# Submitted via: CDex 1.70beta3
#
DISCID=a10c390c
DTITLE=Bon Jovi - 100,000,000 Bon Jovi Fans Can't Be Wrong... [CD 2)
DYEAR=2004
DGENRE=Hard Rock
TTITLE0=Garageland (Unreleased)
TTITLE1=Starting All Over Again (Japan Bonus Track)
TTITLE2=Maybe Someday (Unreleased)
TTITLE3=Last Chance Train (Unreleased)
TTITLE4=The Fire Inside (Unreleased)
TTITLE5=Every Beat of My Heart (Unreleased)
TTITLE6=Rich Man Living in a Poor Man's House (Unreleased)
TTITLE7=The One That Got Away (Unreleased)
TTITLE8=You Can Sleep While I Dream (Unreleased)
TTITLE9=Outlaws of Love (Unreleased)
TTITLE10=Good Guys Don't Always Wear White (From The Motion Picture Soundtrack To 'The Cowboy Way')
TTITLE11=We Rule the Night (Unreleased)
EXTD=YEAR: 2004
EXTT0=
EXTT1=
EXTT2=
EXTT3=
EXTT4=
EXTT5=
EXTT6=
EXTT7=
EXTT8=
EXTT9=
EXTT10=
EXTT11=
PLAYORDER=
